<?xml version="1.0" encoding="utf-8"?>
<!-- Generator: Adobe Illustrator 16.0.0, SVG Export Plug-In . SVG Version: 6.00 Build 0)  -->
<!DOCTYPE svg PUBLIC "-//W3C//DTD SVG 1.1//EN" "http://www.w3.org/Graphics/SVG/1.1/DTD/svg11.dtd">
<svg version="1.1" id="Layer_1" xmlns="http://www.w3.org/2000/svg" xmlns:xlink="http://www.w3.org/1999/xlink" x="0px" y="0px"
	 width="783.583px" height="271.576px" viewBox="0 0 783.583 271.576" enable-background="new 0 0 783.583 271.576"
	 xml:space="preserve">
<g>
	<g>
		<path d="M146.33,198.357c-2.71-0.087-5.691-0.271-8.942-0.542c-3.252-0.271-5.737-0.946-7.452-2.03
			c-2.35-1.532-4.131-3.407-5.352-5.619c-1.22-2.211-1.83-4.896-1.83-8.057V2.03L120.718,0L65.985,2.981v8.4
			c4.966,0.361,9.596,0.927,13.888,1.697c4.289,0.77,7.699,2.013,10.229,3.733c2.256,1.629,4.018,4.005,5.283,7.128
			c1.265,3.123,1.896,6.583,1.896,10.384v46.564c-4.331-2.439-9.494-4.448-15.492-6.028c-6-1.581-12.109-2.372-18.333-2.372
			c-8.298,0-16.44,1.808-24.423,5.419c-7.983,3.615-14.726,8.446-20.226,14.498c-5.864,6.503-10.466,14.091-13.803,22.762
			C1.668,123.838,0,133.006,0,142.672c0,10.568,1.556,20.233,4.668,28.995c3.113,8.762,7.33,16.259,12.652,22.491
			c5.229,6.142,11.385,10.904,18.466,14.293c7.082,3.386,14.411,5.08,21.987,5.08c7.307,0,14.409-1.673,21.311-5.012
			c6.899-3.342,12.696-7.634,17.387-12.873l1.081,0.271v12.466l2.04,1.896l46.737-2.98V198.357z M85.314,194.292
			c-4.733,3.165-10.706,4.743-17.916,4.743c-6.762,0-12.601-1.535-17.512-4.606c-4.914-3.071-8.949-7.136-12.104-12.194
			c-3.425-5.329-5.859-11.088-7.301-17.277c-1.444-6.186-2.164-13.072-2.164-20.659c0-9.485,0.968-18.133,2.907-25.949
			c1.939-7.811,4.575-14.246,7.912-19.306c3.515-5.237,7.55-9.259,12.101-12.059c4.552-2.8,9.533-4.2,14.944-4.2
			c4.687,0,8.788,0.746,12.304,2.234c3.517,1.492,6.582,3.368,9.197,5.624c2.434,2.258,4.462,4.742,6.083,7.452
			c1.622,2.71,2.794,5.239,3.516,7.587v78.179C94.037,187.655,90.048,191.13,85.314,194.292z"/>
		<path d="M268.542,172.48c-5.419,9.806-11.042,16.591-16.868,20.359c-5.826,3.769-12.759,5.654-20.798,5.654
			c-7.857,0-14.633-1.518-20.324-4.549c-5.69-3.034-10.297-7.175-13.82-12.425c-3.613-5.435-6.255-11.725-7.926-18.879
			c-1.672-7.149-2.506-15.116-2.506-23.9h88.475V129.8c0-8.04-1.015-15.491-3.048-22.356c-2.031-6.863-5.127-12.825-9.281-17.885
			c-4.336-5.33-9.981-9.53-16.936-12.601c-6.957-3.071-15.312-4.607-25.067-4.607c-9.484,0-18.042,1.966-25.674,5.893
			c-7.634,3.931-14.024,9.102-19.173,15.515c-5.33,6.684-9.371,14.205-12.126,22.56c-2.756,8.354-4.132,16.868-4.132,25.54
			c0,9.665,1.287,18.832,3.861,27.503c2.575,8.671,6.481,16.259,11.72,22.763c5.238,6.503,11.9,11.652,19.985,15.445
			c8.083,3.794,17.5,5.69,28.25,5.69c12.194,0,22.987-3.161,32.382-9.483c9.394-6.319,16.89-14.814,22.491-25.473L268.542,172.48z
			 M186.299,127.361c0.542-14.048,3.951-25.013,10.229-32.894c6.277-7.88,14.159-11.818,23.643-11.818
			c5.691,0,10.343,1.306,13.956,3.918c3.612,2.612,6.458,5.989,8.536,10.129c1.897,3.875,3.273,8.693,4.133,14.456
			c0.857,5.763,1.287,11.165,1.287,16.208H186.299z"/>
		<path d="M368.602,135.896c-5.286-2.527-10.908-4.742-16.869-6.639c-6.052-1.987-11.132-3.772-15.242-5.351
			c-4.111-1.581-7.521-3.273-10.23-5.082c-2.8-1.896-4.9-4.2-6.3-6.91c-1.401-2.71-2.101-6.097-2.101-10.162
			c0-5.277,2.122-9.779,6.368-13.509c4.246-3.73,10.071-5.595,17.479-5.595c9.032,0,16.687,3.017,22.966,9.047
			c6.278,6.034,10.364,13.856,12.261,23.47h9.349l-2.032-42.95h-9.755l-3.115,7.045c-3.436-1.897-7.884-3.523-13.347-4.877
			c-5.466-1.355-10.817-2.033-16.056-2.033c-13.64,0-24.523,3.794-32.653,11.381c-8.129,7.587-12.194,16.848-12.194,27.775
			c0,6.232,1.265,11.652,3.794,16.259c2.528,4.607,5.78,8.491,9.756,11.653c3.702,2.98,8.15,5.578,13.345,7.79
			c5.195,2.215,9.913,3.952,14.159,5.217c5.329,1.626,10.162,3.273,14.5,4.942c4.333,1.673,7.992,3.549,10.973,5.626
			c2.891,2.077,5.08,4.495,6.572,7.248c1.49,2.757,2.234,6.03,2.234,9.824c0,7.359-2.35,13.018-7.045,16.97
			c-4.697,3.953-11.381,5.926-20.051,5.926c-6.146,0-11.677-1.358-16.598-4.075c-4.925-2.721-9.146-6.074-12.669-10.063
			c-3.342-3.809-6.188-8.068-8.536-12.779c-2.35-4.712-3.884-8.838-4.606-12.375h-9.35l1.356,46.475h10.161l2.71-8.809
			c2.799,2.353,7.474,4.925,14.023,7.725c6.55,2.797,13.707,4.198,21.475,4.198c14.724,0,26.713-3.927,35.972-11.785
			c9.26-7.858,13.889-17.976,13.889-30.351c0-6.142-0.994-11.334-2.981-15.583c-1.987-4.245-4.833-7.992-8.536-11.243
			C378.242,141.227,373.884,138.426,368.602,135.896z"/>
		<path d="M478.144,200.795c-2.33-0.181-4.44-0.517-6.323-1.015c-1.886-0.495-3.814-1.153-5.788-1.966
			c-2.601-0.994-4.505-2.525-5.716-4.606c-1.214-2.078-1.817-4.693-1.817-7.858V76.417l-1.896-1.897l-47.15,2.981v8.942
			c2.71,0.181,5.69,0.656,8.942,1.423c3.252,0.766,5.733,1.691,7.45,2.771c2.349,1.625,4.177,3.631,5.488,6.023
			c1.308,2.392,1.965,5.029,1.965,7.916v82.417c0,3.248-0.61,5.886-1.828,7.916c-1.221,2.031-3.097,3.451-5.625,4.264
			c-1.626,0.542-3.545,0.899-5.756,1.08c-2.215,0.185-4.361,0.361-6.438,0.542v8.942h64.493V200.795z M456.263,9.688
			c-3.299-3.477-7.519-5.216-12.667-5.216c-4.607,0-8.603,1.852-11.992,5.555c-3.386,3.704-5.08,8.04-5.08,13.007
			c0,4.697,1.694,8.875,5.08,12.533c3.39,3.658,7.385,5.488,11.992,5.488c4.964,0,9.145-1.919,12.533-5.758
			c3.386-3.838,5.08-8.333,5.08-13.481C461.209,17.207,459.558,13.166,456.263,9.688z"/>
		<path d="M597.715,188.468c-4.198-1.807-8.379-2.801-12.534-2.981c-2.891-0.09-7.789-0.361-14.697-0.813
			c-6.912-0.452-12.354-0.723-16.328-0.813c-3.707-0.09-7.295-0.224-10.771-0.408c-3.479-0.181-6.528-0.629-9.148-1.354
			c-2.71-0.629-5.011-1.828-6.908-3.592c-1.896-1.76-2.847-4.311-2.847-7.652c0-3.252,1.131-5.828,3.389-7.725
			c2.255-1.897,4.423-3.205,6.504-3.928h16.393c12.646,0,23.734-4.064,33.266-12.194c9.527-8.129,14.293-18.066,14.293-29.808
			c0-4.517-0.813-9.123-2.438-13.82c-1.626-4.695-4.112-8.987-7.454-12.872v-0.813h31.434V76.688h-46.608
			c-4.155-1.265-8.241-2.303-12.259-3.116c-4.021-0.813-8.064-1.22-12.13-1.22c-14.723,0-26.805,4.065-36.242,12.194
			c-9.441,8.129-14.16,18.517-14.16,31.163c0,8.4,2.393,15.786,7.184,22.152c4.787,6.368,11.515,11.586,20.186,15.65v2.03
			c-6.864,2.895-11.988,6.349-15.377,10.366c-3.386,4.021-5.08,8.422-5.08,13.209c0,3.794,0.723,6.978,2.168,9.554
			c1.441,2.572,3.339,4.809,5.69,6.706c2.077,1.625,4.56,3.049,7.45,4.267c2.891,1.222,5.69,2.236,8.4,3.05v1.896
			c-11.2,0.455-20.414,3.342-27.64,8.671c-7.227,5.33-10.84,12.603-10.84,21.816c0,11.381,5.016,20.027,15.042,25.945
			c10.025,5.915,25.154,8.874,45.387,8.874c12.375,0,22.763-1.175,31.163-3.523s15.627-5.646,21.679-9.889
			c5.69-4.158,9.936-9.058,12.735-14.701c2.801-5.647,4.202-11.678,4.202-18.088c0-6.416-1.04-11.789-3.118-16.125
			c-2.077-4.335-4.924-8.216-8.534-11.652C605.729,192.756,601.917,190.274,597.715,188.468z M566.282,140.436
			c-4.198,6.279-10.186,9.415-17.954,9.415c-6.955,0-12.624-3.161-17.003-9.484c-4.383-6.322-6.572-14.496-6.572-24.522
			c0-4.424,0.383-8.738,1.153-12.94c0.766-4.198,2.052-7.79,3.862-10.771c1.896-3.252,4.357-5.759,7.385-7.519
			c3.024-1.764,6.659-2.643,10.904-2.643c7.768,0,13.798,3.14,18.091,9.417c4.288,6.277,6.435,14.7,6.435,25.268
			C572.583,126.232,570.484,134.157,566.282,140.436z M587.147,251.942c-7.635,5.105-18.087,7.656-31.365,7.656
			c-7.678,0-14.182-0.744-19.511-2.236c-5.333-1.488-9.574-3.411-12.735-5.756c-3.343-2.438-5.691-5.104-7.046-7.995
			s-2.034-5.919-2.034-9.076c0-7.046,2.056-12.805,6.168-17.278c4.107-4.469,11.041-7.652,20.796-9.549
			c10.385,0,19.511,0.224,27.369,0.676c7.858,0.455,13.051,0.859,15.58,1.221c4.787,1.171,8.354,3.386,10.705,6.638
			c2.349,3.252,3.523,7.406,3.523,12.465C598.597,239.094,594.778,246.84,587.147,251.942z"/>
		<path d="M783.54,200.795c-2.801-0.181-4.99-0.451-6.569-0.813c-1.582-0.358-3.457-0.994-5.625-1.897
			c-2.62-1.084-4.47-2.594-5.554-4.538c-1.084-1.939-1.626-4.49-1.626-7.655v-69.506c0-13.278-3.096-23.913-9.281-31.909
			c-6.189-7.992-15.695-11.99-28.522-11.99c-5.78,0-10.973,0.724-15.579,2.168c-4.606,1.445-8.585,3.251-11.923,5.419
			c-2.895,1.897-5.962,4.359-9.214,7.383c-3.252,3.028-5.961,5.624-8.129,7.792h-0.68V76.417l-1.896-1.897L634.5,77.5v8.942
			c2.71,0.181,5.239,0.52,7.588,1.015s4.383,1.286,6.099,2.367c2.349,1.626,4.177,3.725,5.488,6.294
			c1.308,2.57,1.962,5.391,1.962,8.458v82.417c0,3.248-0.606,5.886-1.828,7.916c-1.218,2.031-3.097,3.451-5.622,4.264
			c-1.626,0.542-3.548,0.899-5.759,1.08c-2.215,0.185-4.357,0.361-6.436,0.542v8.942h65.44v-8.942
			c-2.349-0.181-4.629-0.495-6.84-0.946c-2.215-0.452-4.271-1.131-6.167-2.034c-2.529-1.084-4.427-2.62-5.69-4.606
			c-1.265-1.984-1.897-4.517-1.897-7.588v-76.822c0.813-1.443,2.106-3.365,3.87-5.757c1.767-2.394,4.144-4.628,7.132-6.708
			c3.078-2.168,6.608-3.998,10.59-5.486c3.985-1.492,8.375-2.237,13.177-2.237c6.428,0,11.88,2.575,16.364,7.723
			c4.479,5.148,6.724,12.465,6.724,21.949v68.693c0,3.251-0.61,5.893-1.828,7.927c-1.222,2.03-3.097,3.454-5.626,4.267
			c-1.626,0.542-3.682,0.903-6.164,1.084c-2.485,0.185-4.766,0.361-6.843,0.542v8.942h65.307V200.795z"/>
	</g>
	<g>
		<path d="M159.415,267.905c-0.629-0.021-1.48-0.134-2.552-0.329c-1.072-0.198-1.818-0.415-2.237-0.646
			c-0.792-0.423-1.329-0.91-1.608-1.471c-0.28-0.56-0.42-1.246-0.42-2.063v-35.759c0-0.77,0.14-1.481,0.42-2.132
			c0.279-0.654,0.816-1.12,1.608-1.398c0.466-0.162,1.206-0.34,2.22-0.523c1.014-0.188,1.846-0.293,2.5-0.318v-2.479H143.17
			c-0.023,0.419-0.192,1.254-0.507,2.5c-0.315,1.247-0.693,2.442-1.135,3.585l-12.13,31.145l-14.208-37.229H98.276v2.479
			c1.025,0.047,2.062,0.225,3.111,0.527c1.049,0.3,1.934,0.767,2.657,1.398c0.652,0.582,1.153,1.341,1.503,2.27
			c0.35,0.936,0.525,2.135,0.525,3.602v25.379c0,3.168-0.152,5.43-0.455,6.781c-0.303,1.352-0.862,2.355-1.678,3.006
			c-0.629,0.514-1.521,0.896-2.674,1.153c-1.154,0.256-2.255,0.433-3.304,0.523v2.482h20.03v-2.482
			c-0.489-0.021-1.538-0.253-3.146-0.697c-1.608-0.444-2.668-0.91-3.181-1.398c-0.746-0.653-1.3-1.724-1.66-3.216
			c-0.362-1.492-0.542-3.671-0.542-6.536v-29.608h0.455l16.114,43.136h1.748l16.919-42.262h0.525v36.073
			c0,0.863-0.17,1.578-0.507,2.149c-0.339,0.574-0.869,1.08-1.591,1.521c-0.467,0.256-1.323,0.455-2.57,0.596
			c-1.247,0.138-2.266,0.221-3.059,0.242v2.482h21.918V267.905z"/>
		<path d="M212.339,267.905c-0.583-0.021-1.305-0.145-2.168-0.365c-0.862-0.22-1.562-0.495-2.097-0.823
			c-0.792-0.535-1.41-1.08-1.853-1.641c-0.443-0.56-0.839-1.293-1.189-2.204l-16.534-42.786h-2.796
			c-2.354,6.06-5.034,12.968-8.04,20.729c-3.006,7.761-5.756,14.752-8.25,20.974c-0.49,1.214-0.991,2.164-1.503,2.851
			c-0.513,0.687-1.236,1.345-2.167,1.973c-0.584,0.376-1.329,0.673-2.238,0.893c-0.909,0.225-1.666,0.358-2.272,0.401v2.482h18.681
			v-2.482c-1.841-0.091-3.496-0.394-4.964-0.907c-1.469-0.513-2.202-1.235-2.202-2.168c0-0.396,0.058-0.91,0.174-1.539
			c0.118-0.628,0.327-1.445,0.631-2.445c0.327-1.026,0.694-2.143,1.103-3.356c0.409-1.211,0.939-2.635,1.593-4.264h17.412
			l4.109,11.117c0.092,0.231,0.162,0.499,0.209,0.802c0.046,0.304,0.069,0.561,0.069,0.77c0,0.514-0.6,0.943-1.799,1.294
			c-1.2,0.351-2.709,0.582-4.527,0.697v2.482h20.619V267.905z M177.463,250.114l7.406-19.25l7.513,19.25H177.463z"/>
		<path d="M262.118,248.051h-21.744v2.551c0.746,0.047,1.777,0.159,3.094,0.332c1.316,0.177,2.359,0.438,3.129,0.788
			c0.839,0.351,1.392,0.903,1.66,1.658c0.268,0.759,0.402,1.626,0.402,2.604v2.729c0,0.863-0.006,1.911-0.017,3.146
			c-0.013,1.236-0.111,2.457-0.298,3.671c-0.7,0.697-1.896,1.362-3.587,1.991c-1.693,0.629-3.565,0.942-5.619,0.942
			c-2.754,0-5.215-0.592-7.386-1.781c-2.17-1.191-3.978-2.825-5.425-4.898c-1.447-2.031-2.55-4.438-3.308-7.223
			c-0.758-2.789-1.137-5.756-1.137-8.906c0-3.566,0.385-6.797,1.154-9.69c0.771-2.891,1.866-5.304,3.29-7.24
			c1.446-2.006,3.149-3.516,5.109-4.531c1.96-1.016,4.188-1.521,6.685-1.521c2.286,0,4.251,0.438,5.896,1.312
			c1.645,0.875,3.039,2.045,4.182,3.513c1.144,1.467,2.077,3.129,2.8,4.982c0.722,1.854,1.329,3.735,1.819,5.644h2.867
			l-0.315-17.336h-2.796l-1.433,2.374c-1.585-0.954-3.415-1.771-5.488-2.446c-2.075-0.676-4.509-1.012-7.306-1.012
			c-3.496,0-6.776,0.646-9.84,1.94c-3.064,1.294-5.704,3.107-7.918,5.438c-2.284,2.381-4.049,5.185-5.296,8.415
			c-1.248,3.23-1.871,6.734-1.871,10.511c0,3.92,0.652,7.464,1.958,10.633c1.304,3.173,3.064,5.868,5.278,8.083
			c2.19,2.192,4.754,3.884,7.69,5.072s5.989,1.781,9.159,1.781c2.959,0,5.977-0.372,9.053-1.116
			c3.077-0.748,6.164-1.817,9.264-3.216c-0.047-0.633-0.088-1.435-0.123-2.414c-0.035-0.979-0.052-2.864-0.052-5.661v-3.848
			c0-0.86,0.145-1.611,0.437-2.255c0.291-0.64,0.787-1.135,1.486-1.485c0.582-0.278,1.345-0.495,2.289-0.646s1.695-0.26,2.255-0.332
			V248.051z"/>
		<path d="M312.28,267.905c-0.583-0.021-1.305-0.145-2.167-0.365c-0.863-0.22-1.562-0.495-2.098-0.823
			c-0.793-0.535-1.411-1.08-1.853-1.641c-0.443-0.56-0.839-1.293-1.188-2.204l-16.534-42.786h-2.797
			c-2.354,6.06-5.034,12.968-8.04,20.729c-3.006,7.761-5.756,14.752-8.25,20.974c-0.489,1.214-0.99,2.164-1.503,2.851
			c-0.512,0.687-1.235,1.345-2.167,1.973c-0.583,0.376-1.329,0.673-2.237,0.893c-0.909,0.225-1.666,0.358-2.271,0.401v2.482h18.68
			v-2.482c-1.841-0.091-3.496-0.394-4.964-0.907c-1.468-0.513-2.202-1.235-2.202-2.168c0-0.396,0.058-0.91,0.175-1.539
			c0.117-0.628,0.326-1.445,0.63-2.445c0.327-1.026,0.694-2.143,1.103-3.356c0.408-1.211,0.939-2.635,1.594-4.264H293.6
			l4.109,11.117c0.093,0.231,0.162,0.499,0.208,0.802c0.047,0.304,0.071,0.561,0.071,0.77c0,0.514-0.601,0.943-1.8,1.294
			c-1.2,0.351-2.709,0.582-4.526,0.697v2.482h20.618V267.905z M277.404,250.114l7.405-19.25l7.514,19.25H277.404z"/>
		<path d="M350.627,254.902c-0.628,1.607-1.597,3.461-2.901,5.56c-1.304,2.096-2.715,3.866-4.231,5.312
			c-0.675,0.676-2.131,1.156-4.368,1.435c-2.236,0.278-4.346,0.419-6.326,0.419H321.02l31.215-45.618v-1.222h-37.159l-1.503,14.016
			h2.447c0.979-2.493,2.43-4.86,4.352-7.097c1.923-2.236,3.653-3.505,5.191-3.808c0.746-0.142,1.568-0.235,2.464-0.282
			s2.009-0.068,3.338-0.068h11.43l-31.215,45.618v1.222h39.851l1.642-15.485H350.627z"/>
		<path d="M378.802,267.905c-0.77-0.021-1.707-0.145-2.814-0.365c-1.106-0.22-1.904-0.426-2.394-0.61
			c-0.817-0.351-1.393-0.824-1.731-1.416c-0.338-0.597-0.508-1.275-0.508-2.045v-35.899c0-0.77,0.152-1.471,0.456-2.1
			c0.303-0.629,0.896-1.084,1.783-1.362c0.746-0.234,1.62-0.426,2.621-0.578c1.001-0.151,1.864-0.238,2.587-0.264v-2.479h-22.336
			v2.479c0.676,0.047,1.542,0.195,2.603,0.438c1.061,0.245,1.94,0.51,2.64,0.787c0.954,0.372,1.561,0.835,1.817,1.381
			c0.256,0.549,0.385,1.231,0.385,2.045v35.936c0,0.932-0.175,1.662-0.524,2.186c-0.351,0.524-0.909,0.939-1.678,1.239
			c-0.49,0.188-1.33,0.329-2.517,0.419c-1.189,0.095-2.098,0.167-2.726,0.21v2.482h22.336V267.905z"/>
		<path d="M435.921,220.787H415.75v2.479c0.77,0.047,1.893,0.282,3.374,0.701c1.478,0.419,2.547,0.849,3.197,1.293
			c0.701,0.514,1.236,1.543,1.608,3.093c0.372,1.551,0.56,3.769,0.56,6.659v23.59l-27.882-37.814h-14.171v2.479
			c0.885,0.047,2.045,0.347,3.479,0.893c1.433,0.549,2.569,1.207,3.407,1.977c0.63,0.581,1.131,1.409,1.503,2.482
			c0.372,1.072,0.56,2.143,0.56,3.215v24.436c0,3.237-0.152,5.528-0.456,6.868c-0.303,1.341-0.861,2.338-1.676,2.988
			c-0.374,0.325-1.306,0.693-2.796,1.102c-1.492,0.409-2.553,0.637-3.182,0.68v2.482h20.344v-2.482
			c-0.534-0.021-1.644-0.253-3.32-0.697s-2.785-0.921-3.32-1.435c-0.748-0.65-1.301-1.745-1.662-3.284s-0.542-3.739-0.542-6.608
			v-25.588l30.064,40.586h3.042V234.56c0-2.54,0.145-4.64,0.434-6.294c0.293-1.655,0.856-2.771,1.698-3.356
			c0.582-0.373,1.55-0.734,2.901-1.084c1.352-0.348,2.353-0.535,3.006-0.561V220.787z"/>
		<path d="M479.126,255.776c-0.325,1.073-1.076,2.746-2.254,5.019c-1.178,2.269-2.302,3.967-3.375,5.083
			c-0.394,0.42-1.065,0.752-2.009,0.998c-0.943,0.245-1.857,0.415-2.742,0.506c-0.863,0.094-1.926,0.141-3.184,0.141
			c-1.257,0-2.272,0-3.042,0c-1.933,0-3.425-0.065-4.473-0.191c-1.048-0.127-1.875-0.412-2.482-0.856
			c-0.606-0.441-1.012-1.091-1.225-1.955c-0.21-0.859-0.314-2.034-0.314-3.522v-14.868h5.593c1.518,0,2.735,0.142,3.653,0.42
			c0.921,0.277,1.745,0.874,2.468,1.781c0.44,0.56,0.867,1.463,1.275,2.709c0.404,1.247,0.657,2.432,0.751,3.549h2.62v-19.436h-2.62
			c-0.119,1.001-0.357,2.067-0.719,3.198s-0.799,2.034-1.308,2.71c-0.633,0.791-1.358,1.358-2.187,1.694
			c-0.827,0.34-2.139,0.509-3.935,0.509h-5.593v-19.716h7.797c1.283,0,2.425,0.021,3.426,0.068c1,0.047,1.864,0.119,2.587,0.21
			c1.397,0.188,2.872,1.275,4.422,3.27c1.55,1.99,2.559,3.873,3.024,5.644h2.619v-11.952H439.52v2.479
			c0.629,0.047,1.475,0.188,2.537,0.423c1.059,0.231,1.903,0.499,2.532,0.802c0.816,0.372,1.352,0.856,1.608,1.453
			c0.256,0.592,0.386,1.275,0.386,2.045v35.653c0,0.864-0.147,1.572-0.437,2.132c-0.293,0.561-0.813,1.016-1.558,1.366
			c-0.351,0.162-1.105,0.317-2.272,0.47c-1.163,0.151-2.096,0.253-2.797,0.296v2.482h41.179l0.946-14.611H479.126z"/>
	</g>
	<g display="none">
		<path display="inline" fill-rule="evenodd" clip-rule="evenodd" d="M635.678,221.156h147.904v49.365H635.678V221.156z"/>
		<g display="inline">
			<path fill="#FFFFFF" d="M658.678,245.309c-0.95-0.297-1.81-0.488-2.579-0.578v-0.17c0.87-0.188,1.68-0.456,2.428-0.803
				s1.413-0.77,1.994-1.275c0.614-0.527,1.095-1.159,1.435-1.896s0.51-1.579,0.51-2.522c0-1.083-0.238-2.001-0.72-2.756
				c-0.477-0.759-1.087-1.355-1.831-1.796c-0.792-0.48-1.626-0.813-2.501-1.001c-0.878-0.191-1.792-0.285-2.749-0.285H642.29v1.344
				c0.318,0.025,0.708,0.087,1.175,0.188c0.466,0.102,0.885,0.246,1.264,0.434c0.427,0.203,0.716,0.467,0.86,0.795
				c0.145,0.325,0.217,0.705,0.217,1.131v19.269c0,0.467-0.083,0.85-0.246,1.142c-0.162,0.297-0.44,0.535-0.831,0.709
				c-0.253,0.115-0.668,0.213-1.246,0.292c-0.582,0.083-1.019,0.138-1.322,0.163v1.34h12.692c1.135,0,2.233-0.151,3.299-0.451
				c1.063-0.304,2.017-0.744,2.861-1.322c0.867-0.593,1.572-1.348,2.114-2.27c0.542-0.917,0.813-2.001,0.813-3.248
				c0-1.221-0.26-2.262-0.773-3.118c-0.517-0.856-1.167-1.546-1.947-2.077C660.474,246.017,659.628,245.605,658.678,245.309z
				 M654.871,243.694c-0.737,0.264-1.619,0.397-2.648,0.397h-2.392v-10.315c0.411-0.011,0.925-0.029,1.535-0.047
				c0.607-0.019,1.113-0.029,1.518-0.029c1.73,0,3.002,0.419,3.805,1.258c0.806,0.842,1.206,1.998,1.206,3.476
				c0,0.882-0.09,1.644-0.274,2.287c-0.181,0.643-0.506,1.239-0.968,1.781C656.197,243.029,655.604,243.426,654.871,243.694z
				 M657.783,255.895c-0.997,1.095-2.432,1.644-4.307,1.644c-1.149,0-2.042-0.202-2.685-0.604c-0.644-0.404-0.961-1-0.961-1.795
				v-9.445c0.274-0.011,0.689-0.028,1.246-0.047c0.553-0.018,1.232-0.028,2.038-0.028c1.976,0,3.497,0.509,4.563,1.531
				c1.062,1.02,1.597,2.323,1.597,3.91C659.275,253.189,658.776,254.8,657.783,255.895z"/>
			<path fill="#FFFFFF" d="M693.614,257.691c-0.325-0.015-0.733-0.062-1.226-0.152c-0.491-0.086-0.903-0.213-1.229-0.375
				c-0.44-0.229-0.885-0.521-1.333-0.882c-0.448-0.358-0.946-0.914-1.499-1.669c-1.275-1.713-2.349-3.169-3.223-4.365
				c-0.875-1.195-1.973-2.67-3.296-4.419c0.958-0.278,1.832-0.614,2.627-1.012c0.791-0.397,1.471-0.867,2.038-1.409
				c0.617-0.578,1.084-1.264,1.398-2.056c0.314-0.795,0.473-1.709,0.473-2.742c0-1.146-0.234-2.124-0.7-2.938
				c-0.467-0.81-1.088-1.467-1.868-1.973c-0.806-0.517-1.709-0.889-2.703-1.124c-0.993-0.23-2.06-0.35-3.19-0.35h-12.374v1.344
				c0.354,0.025,0.78,0.083,1.286,0.177c0.502,0.094,0.91,0.199,1.225,0.311c0.466,0.178,0.763,0.438,0.889,0.777
				c0.127,0.34,0.188,0.729,0.188,1.171v19.38c0,0.491-0.084,0.896-0.253,1.211c-0.17,0.314-0.445,0.553-0.824,0.715
				c-0.224,0.102-0.625,0.185-1.199,0.246c-0.571,0.064-1.009,0.108-1.312,0.134v1.34h11.334v-1.34
				c-0.391-0.015-0.867-0.059-1.435-0.134c-0.567-0.076-0.965-0.155-1.192-0.246c-0.451-0.173-0.748-0.43-0.885-0.762
				c-0.142-0.337-0.21-0.723-0.21-1.164v-8.501h2.746c1.51,1.939,2.908,3.822,4.198,5.65c1.29,1.824,2.731,3.992,4.332,6.496h7.216
				V257.691z M681.94,243.592c-1.156,1.113-2.605,1.669-4.344,1.669h-2.475v-11.485h3.212c1.698,0,3.018,0.474,3.949,1.424
				c0.929,0.95,1.395,2.236,1.395,3.858C683.677,240.965,683.099,242.48,681.94,243.592z"/>
			<path fill="#FFFFFF" d="M719.646,257.691c-0.314-0.015-0.705-0.08-1.171-0.199s-0.846-0.268-1.135-0.444
				c-0.426-0.289-0.763-0.585-1.001-0.889c-0.238-0.3-0.451-0.697-0.643-1.188l-8.936-23.12h-1.51
				c-1.272,3.273-2.721,7.006-4.344,11.2c-1.625,4.195-3.11,7.971-4.458,11.334c-0.264,0.654-0.535,1.167-0.813,1.539
				c-0.277,0.373-0.668,0.727-1.17,1.066c-0.314,0.202-0.72,0.365-1.211,0.484s-0.899,0.191-1.229,0.217v1.34h10.096v-1.34
				c-0.994-0.051-1.89-0.214-2.682-0.491c-0.795-0.278-1.192-0.669-1.192-1.171c0-0.213,0.033-0.491,0.098-0.831
				c0.062-0.34,0.174-0.78,0.34-1.322c0.177-0.553,0.376-1.16,0.597-1.814c0.22-0.653,0.506-1.423,0.859-2.305h9.408l2.223,6.009
				c0.051,0.126,0.087,0.271,0.111,0.434c0.025,0.162,0.036,0.303,0.036,0.415c0,0.278-0.321,0.51-0.972,0.697
				c-0.646,0.191-1.463,0.318-2.446,0.38v1.34h11.144V257.691z M700.799,248.077l4-10.402l4.062,10.402H700.799z"/>
			<path fill="#FFFFFF" d="M735.467,245.28c-0.701-0.415-1.428-0.788-2.183-1.113c-0.831-0.364-1.69-0.711-2.579-1.029
				c-0.89-0.321-1.792-0.704-2.71-1.146c-1.033-0.491-1.821-1.116-2.363-1.879c-0.542-0.762-0.813-1.72-0.813-2.879
				c0-1.109,0.423-2.049,1.268-2.815c0.842-0.77,1.864-1.152,3.061-1.152c1.131,0,2.088,0.217,2.869,0.65
				c0.78,0.434,1.441,1.019,1.983,1.749c0.557,0.755,1.004,1.601,1.352,2.529c0.347,0.932,0.657,1.907,0.936,2.93h1.528
				l-0.148-8.898h-1.514l-0.773,1.286c-0.806-0.506-1.698-0.947-2.674-1.322c-0.976-0.38-2.081-0.567-3.313-0.567
				c-1.084,0-2.125,0.184-3.118,0.557c-0.994,0.372-1.857,0.885-2.587,1.539c-0.77,0.693-1.362,1.481-1.778,2.362
				c-0.415,0.878-0.621,1.832-0.621,2.851c0,1.774,0.419,3.213,1.254,4.314c0.838,1.102,2.013,1.991,3.522,2.674
				c0.77,0.351,1.684,0.723,2.742,1.116c1.056,0.397,1.994,0.759,2.814,1.084c1.196,0.477,2.096,1.182,2.699,2.11
				c0.604,0.925,0.907,1.926,0.907,2.995c0,0.733-0.098,1.38-0.293,1.94c-0.195,0.56-0.495,1.047-0.896,1.467
				c-0.404,0.415-0.928,0.736-1.578,0.965c-0.647,0.228-1.406,0.339-2.276,0.339c-1.156,0-2.175-0.22-3.05-0.661
				c-0.874-0.44-1.64-1.033-2.294-1.777c-0.694-0.791-1.25-1.644-1.673-2.559c-0.423-0.914-0.791-1.937-1.105-3.07h-1.528
				l0.264,9.181h1.51l0.813-1.377c0.867,0.527,1.9,0.979,3.096,1.352c1.196,0.368,2.396,0.557,3.592,0.557
				c2.594,0,4.766-0.77,6.515-2.306c1.752-1.535,2.627-3.49,2.627-5.856c0-0.994-0.134-1.868-0.405-2.616
				c-0.271-0.748-0.69-1.438-1.257-2.066C736.772,246.179,736.165,245.695,735.467,245.28z"/>
			<path fill="#FFFFFF" d="M754.024,257.691c-0.415-0.015-0.921-0.08-1.521-0.199c-0.596-0.119-1.029-0.231-1.293-0.328
				c-0.44-0.192-0.752-0.445-0.936-0.767c-0.181-0.321-0.271-0.689-0.271-1.105v-19.398c0-0.416,0.08-0.795,0.246-1.135
				c0.162-0.34,0.484-0.585,0.961-0.737c0.404-0.126,0.874-0.23,1.416-0.311c0.542-0.083,1.008-0.13,1.398-0.141v-1.344h-12.071
				v1.344c0.365,0.025,0.835,0.102,1.409,0.234c0.571,0.131,1.048,0.275,1.427,0.427c0.514,0.198,0.842,0.448,0.979,0.744
				c0.141,0.297,0.21,0.665,0.21,1.105v19.417c0,0.506-0.095,0.899-0.282,1.182c-0.191,0.285-0.491,0.509-0.907,0.672
				c-0.267,0.102-0.719,0.177-1.361,0.228c-0.644,0.051-1.131,0.087-1.475,0.112v1.34h12.071V257.691z"/>
			<path fill="#FFFFFF" d="M777.563,251.061c-0.268,0.729-0.74,1.684-1.427,2.861s-1.29,2.056-1.807,2.634
				c-0.174,0.202-0.448,0.368-0.82,0.502c-0.372,0.13-0.776,0.235-1.218,0.311c-0.455,0.076-0.932,0.127-1.435,0.152
				c-0.506,0.025-0.989,0.036-1.456,0.036c-1.033,0-1.835-0.032-2.409-0.102c-0.571-0.072-1.005-0.22-1.294-0.444
				c-0.3-0.253-0.495-0.606-0.574-1.069c-0.083-0.459-0.123-1.105-0.123-1.937v-18c0-0.416,0.079-0.806,0.234-1.171
				c0.159-0.365,0.452-0.625,0.879-0.777c0.252-0.086,0.657-0.188,1.217-0.3c0.564-0.115,1.02-0.177,1.373-0.188v-1.344h-11.315
				v1.344c0.339,0.025,0.77,0.108,1.293,0.253c0.524,0.145,0.929,0.293,1.218,0.444c0.43,0.202,0.715,0.466,0.859,0.795
				c0.145,0.325,0.217,0.704,0.217,1.131v19.192c0,0.491-0.083,0.896-0.253,1.211c-0.169,0.314-0.444,0.553-0.823,0.715
				c-0.228,0.102-0.625,0.185-1.199,0.246c-0.571,0.064-1.012,0.108-1.312,0.134v1.34h20.948l0.567-7.97H777.563z"/>
		</g>
	</g>
	<g>
		<path d="M654.871,243.694c0.733-0.268,1.326-0.665,1.781-1.192c0.462-0.542,0.787-1.139,0.968-1.781
			c0.185-0.644,0.274-1.405,0.274-2.287c0-1.478-0.4-2.634-1.206-3.476c-0.803-0.839-2.074-1.258-3.805-1.258
			c-0.404,0-0.91,0.011-1.518,0.029c-0.61,0.018-1.124,0.036-1.535,0.047v10.315h2.392
			C653.251,244.091,654.133,243.958,654.871,243.694z"/>
		<polygon points="700.799,248.077 708.861,248.077 704.799,237.674 		"/>
		<path d="M683.677,239.058c0-1.622-0.466-2.908-1.395-3.858c-0.932-0.95-2.251-1.424-3.949-1.424h-3.212v11.485h2.475
			c1.738,0,3.188-0.556,4.344-1.669C683.099,242.48,683.677,240.965,683.677,239.058z"/>
		<path d="M635.678,221.156v49.365h147.904v-49.365H635.678z M663.126,254.988c-0.542,0.922-1.247,1.677-2.114,2.27
			c-0.845,0.578-1.799,1.019-2.861,1.322c-1.065,0.3-2.164,0.451-3.299,0.451H642.16v-1.34c0.304-0.025,0.74-0.08,1.322-0.163
			c0.578-0.079,0.993-0.177,1.246-0.292c0.391-0.174,0.669-0.412,0.831-0.709c0.163-0.292,0.246-0.675,0.246-1.142v-19.269
			c0-0.426-0.072-0.806-0.217-1.131c-0.145-0.328-0.434-0.592-0.86-0.795c-0.379-0.188-0.798-0.332-1.264-0.434
			c-0.467-0.101-0.856-0.162-1.175-0.188v-1.344h12.375c0.957,0,1.871,0.094,2.749,0.285c0.875,0.188,1.709,0.521,2.501,1.001
			c0.744,0.44,1.354,1.037,1.831,1.796c0.481,0.755,0.72,1.673,0.72,2.756c0,0.943-0.17,1.785-0.51,2.522s-0.82,1.369-1.435,1.896
			c-0.581,0.506-1.246,0.929-1.994,1.275s-1.558,0.614-2.428,0.803v0.17c0.77,0.09,1.629,0.281,2.579,0.578
			c0.95,0.296,1.796,0.708,2.54,1.235c0.78,0.531,1.431,1.221,1.947,2.077c0.514,0.856,0.773,1.897,0.773,3.118
			C663.939,252.987,663.668,254.071,663.126,254.988z M719.646,259.031h-11.144v-1.34c0.983-0.062,1.8-0.188,2.446-0.38
			c0.65-0.188,0.972-0.419,0.972-0.697c0-0.112-0.011-0.253-0.036-0.415c-0.024-0.163-0.061-0.308-0.111-0.434l-2.223-6.009h-9.408
			c-0.354,0.882-0.64,1.651-0.859,2.305c-0.221,0.654-0.42,1.262-0.597,1.814c-0.166,0.542-0.278,0.982-0.34,1.322
			c-0.064,0.34-0.098,0.618-0.098,0.831c0,0.502,0.397,0.893,1.192,1.171c0.792,0.277,1.688,0.44,2.682,0.491v1.34h-8.509h-1.587
			h-5.629c-1.601-2.504-3.042-4.672-4.332-6.496c-1.29-1.828-2.688-3.711-4.198-5.65h-2.746v8.501c0,0.441,0.068,0.827,0.21,1.164
			c0.137,0.332,0.434,0.589,0.885,0.762c0.228,0.091,0.625,0.17,1.192,0.246c0.567,0.075,1.044,0.119,1.435,0.134v1.34h-11.334
			v-1.34c0.303-0.025,0.74-0.069,1.312-0.134c0.574-0.062,0.976-0.145,1.199-0.246c0.379-0.162,0.654-0.4,0.824-0.715
			c0.169-0.314,0.253-0.72,0.253-1.211v-19.38c0-0.441-0.062-0.831-0.188-1.171c-0.126-0.34-0.423-0.6-0.889-0.777
			c-0.314-0.111-0.723-0.217-1.225-0.311c-0.506-0.094-0.933-0.151-1.286-0.177v-1.344h12.374c1.131,0,2.197,0.119,3.19,0.35
			c0.994,0.235,1.897,0.607,2.703,1.124c0.78,0.506,1.401,1.163,1.868,1.973c0.466,0.813,0.7,1.792,0.7,2.938
			c0,1.033-0.158,1.947-0.473,2.742c-0.314,0.792-0.781,1.478-1.398,2.056c-0.567,0.542-1.247,1.012-2.038,1.409
			c-0.795,0.397-1.669,0.733-2.627,1.012c1.323,1.749,2.421,3.224,3.296,4.419c0.874,1.196,1.947,2.652,3.223,4.365
			c0.553,0.755,1.051,1.311,1.499,1.669c0.448,0.361,0.893,0.653,1.333,0.882c0.325,0.162,0.737,0.289,1.229,0.375
			c0.119,0.021,0.217,0.033,0.326,0.051c0.171-0.033,0.344-0.067,0.541-0.115c0.491-0.119,0.896-0.282,1.211-0.484
			c0.502-0.34,0.893-0.693,1.17-1.066c0.278-0.372,0.55-0.885,0.813-1.539c1.348-3.363,2.833-7.139,4.458-11.334
			c1.623-4.194,3.071-7.927,4.344-11.2h1.51l8.936,23.12c0.191,0.491,0.404,0.889,0.643,1.188c0.238,0.304,0.575,0.6,1.001,0.889
			c0.289,0.177,0.669,0.325,1.135,0.444s0.856,0.185,1.171,0.199V259.031z M736.324,257.275c-1.749,1.536-3.921,2.306-6.515,2.306
			c-1.196,0-2.396-0.188-3.592-0.557c-1.195-0.372-2.229-0.824-3.096-1.352l-0.813,1.377h-1.51l-0.264-9.181h1.528
			c0.314,1.134,0.683,2.156,1.105,3.07c0.423,0.915,0.979,1.768,1.673,2.559c0.654,0.744,1.42,1.337,2.294,1.777
			c0.875,0.441,1.894,0.661,3.05,0.661c0.87,0,1.629-0.111,2.276-0.339c0.65-0.229,1.174-0.55,1.578-0.965
			c0.401-0.42,0.701-0.907,0.896-1.467c0.195-0.561,0.293-1.207,0.293-1.94c0-1.069-0.304-2.07-0.907-2.995
			c-0.604-0.929-1.503-1.634-2.699-2.11c-0.82-0.325-1.759-0.687-2.814-1.084c-1.059-0.394-1.973-0.766-2.742-1.116
			c-1.51-0.683-2.685-1.572-3.522-2.674c-0.835-1.102-1.254-2.54-1.254-4.314c0-1.019,0.206-1.973,0.621-2.851
			c0.416-0.881,1.009-1.669,1.778-2.362c0.729-0.654,1.593-1.167,2.587-1.539c0.993-0.373,2.034-0.557,3.118-0.557
			c1.231,0,2.337,0.188,3.313,0.567c0.976,0.375,1.868,0.816,2.674,1.322l0.773-1.286h1.514l0.148,8.898h-1.528
			c-0.278-1.022-0.589-1.998-0.936-2.93c-0.348-0.929-0.795-1.774-1.352-2.529c-0.542-0.73-1.203-1.315-1.983-1.749
			c-0.781-0.434-1.738-0.65-2.869-0.65c-1.196,0-2.219,0.383-3.061,1.152c-0.845,0.767-1.268,1.706-1.268,2.815
			c0,1.159,0.271,2.117,0.813,2.879c0.542,0.763,1.33,1.388,2.363,1.879c0.918,0.441,1.82,0.824,2.71,1.146
			c0.889,0.318,1.748,0.665,2.579,1.029c0.755,0.325,1.481,0.698,2.183,1.113c0.697,0.415,1.305,0.899,1.821,1.456
			c0.566,0.629,0.986,1.318,1.257,2.066c0.271,0.748,0.405,1.622,0.405,2.616C738.951,253.785,738.076,255.74,736.324,257.275z
			 M754.024,233.57c-0.391,0.011-0.856,0.058-1.398,0.141c-0.542,0.08-1.012,0.185-1.416,0.311
			c-0.477,0.152-0.799,0.397-0.961,0.737c-0.166,0.34-0.246,0.719-0.246,1.135v19.398c0,0.416,0.091,0.784,0.271,1.105
			c0.184,0.321,0.495,0.574,0.936,0.767c0.264,0.097,0.697,0.209,1.293,0.328c0.601,0.119,1.106,0.185,1.521,0.199v1.34h-12.071
			v-1.34c0.344-0.025,0.831-0.062,1.475-0.112c0.643-0.051,1.095-0.126,1.361-0.228c0.416-0.163,0.716-0.387,0.907-0.672
			c0.188-0.282,0.282-0.676,0.282-1.182v-19.417c0-0.44-0.069-0.809-0.21-1.105c-0.138-0.296-0.466-0.546-0.979-0.744
			c-0.379-0.151-0.855-0.296-1.427-0.427c-0.574-0.133-1.044-0.209-1.409-0.234v-1.344h12.071V233.57z M778.336,259.031h-20.948
			v-1.34c0.3-0.025,0.74-0.069,1.312-0.134c0.574-0.062,0.972-0.145,1.199-0.246c0.379-0.162,0.654-0.4,0.823-0.715
			c0.17-0.314,0.253-0.72,0.253-1.211v-19.192c0-0.427-0.072-0.806-0.217-1.131c-0.145-0.329-0.43-0.593-0.859-0.795
			c-0.289-0.151-0.693-0.3-1.218-0.444c-0.523-0.145-0.954-0.228-1.293-0.253v-1.344h11.315v1.344
			c-0.354,0.011-0.809,0.072-1.373,0.188c-0.56,0.112-0.965,0.214-1.217,0.3c-0.427,0.152-0.72,0.412-0.879,0.777
			c-0.155,0.365-0.234,0.755-0.234,1.171v18c0,0.831,0.04,1.478,0.123,1.937c0.079,0.463,0.274,0.816,0.574,1.069
			c0.289,0.225,0.723,0.372,1.294,0.444c0.574,0.069,1.376,0.102,2.409,0.102c0.467,0,0.95-0.011,1.456-0.036
			c0.503-0.025,0.979-0.076,1.435-0.152c0.441-0.075,0.846-0.181,1.218-0.311c0.372-0.134,0.646-0.3,0.82-0.502
			c0.517-0.578,1.12-1.456,1.807-2.634s1.159-2.132,1.427-2.861h1.341L778.336,259.031z"/>
		<path d="M653.115,245.62c-0.806,0-1.485,0.011-2.038,0.028c-0.557,0.019-0.972,0.036-1.246,0.047v9.445
			c0,0.795,0.317,1.391,0.961,1.795c0.643,0.401,1.535,0.604,2.685,0.604c1.875,0,3.31-0.549,4.307-1.644
			c0.993-1.095,1.492-2.706,1.492-4.834c0-1.587-0.535-2.891-1.597-3.91C656.612,246.128,655.09,245.62,653.115,245.62z"/>
	</g>
</g>
</svg>
